<svg aria-hidden="true" focusable="false" xmlns="http://www.w3.org/2000/svg" viewBox="0 0 405.35 159.98">
    <defs>
        <style>
            .cls-1 {
            fill: #e30613;
            }

            .cls-2 {
            fill: #1b1b1b;
            }
        </style>
    </defs>
    <rect class="cls-2" width="405.35" height="159.98"></rect>
    <g>
        <polygon class="cls-1" points="192.02 44.39 150.36 84.4 150.36 44.39 132.82 44.39 132.82 119.16 137.15 119.16 217.81 44.39 192.02 44.39"></polygon>
        <path class="cls-1" d="M119.73,44.39L39.06,119.16h25.79l10.95-10.52h30.71v10.52h17.53V44.39h-4.33ZM83.11,101.63l23.41-22.48v22.48h-23.41Z"></path>
        <path class="cls-1" d="M230.71,44.39l-80.67,74.77h25.79l10.95-10.52h30.71v10.52h17.53V44.39h-4.33ZM194.09,101.63l23.41-22.48v22.48h-23.41Z"></path>
        <g>
            <path class="cls-1" d="M367.05,57.54c-3.63,0-6.58-2.95-6.58-6.57s2.95-6.58,6.58-6.58,6.57,2.95,6.57,6.58-2.95,6.57-6.57,6.57ZM367.05,45.37c-3.08,0-5.59,2.51-5.59,5.59s2.51,5.59,5.59,5.59,5.59-2.51,5.59-5.59-2.51-5.59-5.59-5.59Z"></path>
            <path class="cls-1" d="M367.1,52.07h-.7v2.13h-1.48v-6.48h2.59c1.23,0,2.22.99,2.22,2.22,0,.8-.48,1.52-1.19,1.88l1.38,2.38h-1.59l-1.22-2.13ZM366.4,50.78h1.11c.41,0,.74-.36.74-.83s-.33-.83-.74-.83h-1.11v1.67Z"></path>
        </g>
        <polygon class="cls-1" points="355.22 44.39 341.19 44.39 323.66 44.39 309.63 44.39 309.63 59.29 323.66 59.29 323.66 119.16 341.19 119.16 341.19 59.29 355.22 59.29 355.22 44.39"></polygon>
        <polygon class="cls-1" points="286.84 44.39 286.84 90.7 260.1 44.39 243.8 44.39 243.8 119.16 261.34 119.16 261.34 72.83 288.07 119.14 288.07 119.16 304.37 119.16 304.37 44.39 286.84 44.39"></polygon>
    </g>
</svg>